<svg width="20" height="21" viewBox="0 0 20 21" fill="none" xmlns="http://www.w3.org/2000/svg">
<path d="M10 0.75C8.07164 0.75 6.18657 1.32183 4.58319 2.39317C2.97982 3.46451 1.73013 4.98726 0.992179 6.76884C0.254225 8.55042 0.061142 10.5108 0.437348 12.4021C0.813554 14.2934 1.74215 16.0307 3.10571 17.3943C4.46928 18.7579 6.20656 19.6865 8.09787 20.0627C9.98919 20.4389 11.9496 20.2458 13.7312 19.5078C15.5127 18.7699 17.0355 17.5202 18.1068 15.9168C19.1782 14.3134 19.75 12.4284 19.75 10.5C19.7473 7.91498 18.7192 5.43661 16.8913 3.60872C15.0634 1.78084 12.585 0.75273 10 0.75ZM14.2806 9.53063L10.5306 13.2806C10.461 13.3504 10.3783 13.4057 10.2872 13.4434C10.1962 13.4812 10.0986 13.5006 10 13.5006C9.90144 13.5006 9.80385 13.4812 9.7128 13.4434C9.62175 13.4057 9.53903 13.3504 9.46938 13.2806L5.71938 9.53063C5.57865 9.38989 5.49959 9.19902 5.49959 9C5.49959 8.80098 5.57865 8.61011 5.71938 8.46937C5.86011 8.32864 6.05098 8.24958 6.25 8.24958C6.44903 8.24958 6.6399 8.32864 6.78063 8.46937L10 11.6897L13.2194 8.46937C13.2891 8.39969 13.3718 8.34442 13.4628 8.3067C13.5539 8.26899 13.6515 8.24958 13.75 8.24958C13.8486 8.24958 13.9461 8.26899 14.0372 8.3067C14.1282 8.34442 14.2109 8.39969 14.2806 8.46937C14.3503 8.53906 14.4056 8.62178 14.4433 8.71283C14.481 8.80387 14.5004 8.90145 14.5004 9C14.5004 9.09855 14.481 9.19613 14.4433 9.28717C14.4056 9.37822 14.3503 9.46094 14.2806 9.53063Z" fill="#9F9F9F"/>
</svg>
