<svg width="32" height="32" viewBox="0 0 32 32" fill="none" xmlns="http://www.w3.org/2000/svg">
<path d="M18.0338 5.74124C18.0677 5.61433 18.1263 5.49535 18.2063 5.39111C18.2862 5.28686 18.3859 5.19938 18.4997 5.13368C18.6134 5.06798 18.739 5.02533 18.8693 5.00819C18.9995 4.99104 19.1319 4.99972 19.2588 5.03374C21.1126 5.51743 22.804 6.48655 24.1587 7.84129C25.5135 9.19603 26.4826 10.8874 26.9663 12.7412C27.0003 12.8681 27.009 13.0005 26.9918 13.1307C26.9747 13.261 26.932 13.3866 26.8663 13.5003C26.8006 13.6141 26.7131 13.7138 26.6089 13.7937C26.5047 13.8737 26.3857 13.9323 26.2588 13.9662C26.1743 13.9884 26.0873 13.9998 26 14C25.7798 14.0001 25.5657 13.9274 25.391 13.7934C25.2163 13.6594 25.0907 13.4714 25.0338 13.2587C24.6395 11.7452 23.8486 10.3641 22.7428 9.25805C21.6369 8.15196 20.256 7.36083 18.7425 6.96624C18.6155 6.93243 18.4964 6.87391 18.392 6.79402C18.2876 6.71414 18.2 6.61446 18.1342 6.50068C18.0683 6.38691 18.0256 6.26127 18.0084 6.13096C17.9911 6.00064 17.9998 5.86821 18.0338 5.74124ZM17.7425 10.9662C19.4663 11.4262 20.5738 12.535 21.0338 14.2587C21.0907 14.4714 21.2163 14.6594 21.391 14.7934C21.5657 14.9274 21.7798 15.0001 22 15C22.0873 14.9998 22.1743 14.9884 22.2588 14.9662C22.3857 14.9323 22.5047 14.8737 22.6089 14.7937C22.7131 14.7138 22.8006 14.6141 22.8663 14.5003C22.932 14.3866 22.9747 14.261 22.9918 14.1307C23.009 14.0005 23.0003 13.8681 22.9663 13.7412C22.3263 11.3462 20.6538 9.67374 18.2588 9.03374C18.0025 8.96528 17.7295 9.00143 17.4999 9.13423C17.2703 9.26703 17.1028 9.4856 17.0344 9.74187C16.9659 9.99813 17.0021 10.2711 17.1349 10.5007C17.2677 10.7303 17.4862 10.8978 17.7425 10.9662ZM26.7963 20.8075L20.9075 18.1687L20.8913 18.1612C20.5856 18.0305 20.2521 17.978 19.921 18.0086C19.5899 18.0391 19.2716 18.1517 18.995 18.3362C18.9624 18.3578 18.9311 18.3811 18.9013 18.4062L15.8588 21C13.9313 20.0637 11.9413 18.0887 11.005 16.1862L13.6025 13.0975C13.6275 13.0662 13.6513 13.035 13.6738 13.0012C13.8543 12.7254 13.9638 12.4091 13.9926 12.0807C14.0214 11.7523 13.9686 11.4218 13.8388 11.1187V11.1037L11.1925 5.20499C11.0209 4.80907 10.7259 4.47926 10.3515 4.26479C9.97707 4.05032 9.54333 3.96269 9.11501 4.01499C7.42122 4.23787 5.86649 5.0697 4.74118 6.35511C3.61587 7.64052 2.99695 9.2916 3.00001 11C3.00001 20.925 11.075 29 21 29C22.7084 29.0031 24.3595 28.3841 25.6449 27.2588C26.9303 26.1335 27.7621 24.5788 27.985 22.885C28.0374 22.4568 27.95 22.0232 27.7357 21.6488C27.5215 21.2744 27.1919 20.9793 26.7963 20.8075Z" fill="white"/>
</svg>
