<svg width="32" height="32" viewBox="0 0 32 32" fill="none" xmlns="http://www.w3.org/2000/svg">
<path d="M31.9978 16.0047C31.9978 24.0878 26.0078 30.7703 18.2265 31.8547C17.4989 31.9556 16.7545 32.0083 15.9989 32.0083C15.1267 32.0083 14.2702 31.9388 13.4361 31.8042C5.81839 30.5774 0 23.9701 0 16.0047C0 7.16578 7.16368 0 16 0C24.8363 0 32 7.16578 32 16.0047H31.9978Z" fill="white"/>
<path d="M18.2265 12.8516V16.338H22.5382L21.8555 21.0345H18.2265V31.8549C17.499 31.9559 16.7546 32.0086 15.999 32.0086C15.1268 32.0086 14.2703 31.939 13.4362 31.8045V21.0345H9.45972V16.338H13.4362V12.0722C13.4362 9.42567 15.5808 7.2793 18.2277 7.2793V7.28154C18.2355 7.28154 18.2422 7.2793 18.2501 7.2793H22.5393V11.341H19.7366C18.9037 11.341 18.2277 12.0172 18.2277 12.8505L18.2265 12.8516Z" fill="#A31112"/>
</svg>
