<svg width="48" height="48" viewBox="0 0 48 48" fill="none" xmlns="http://www.w3.org/2000/svg">
<g clip-path="url(#clip0_504_264)">
<path fill-rule="evenodd" clip-rule="evenodd" d="M31.0176 7.05788C34.5979 6.17084 37.6701 6.55745 39.5563 8.44365C41.4426 10.3299 41.8292 13.4023 40.942 16.9828C44.101 18.8872 46 21.333 46 24.0005C46 26.668 44.1011 29.1137 40.9422 31.0181C41.8291 34.5982 41.4425 37.6702 39.5563 39.5564C37.6701 41.4426 34.598 41.8292 31.0176 40.9421C29.1132 44.101 26.6675 46 24 46C21.3325 46 18.8867 44.101 16.9823 40.9421C13.402 41.8292 10.3298 41.4426 8.44363 39.5563C6.5575 37.6702 6.17085 34.5982 7.05774 31.0181C3.89893 29.1137 2 26.668 2 24.0005C2 21.333 3.89903 18.8873 7.05799 16.9828C6.1708 13.4023 6.55736 10.3299 8.44365 8.44365C10.3299 6.55745 13.402 6.17084 16.9823 7.05787C18.8867 3.89898 21.3325 2 24 2C26.6675 2 29.1132 3.89898 31.0176 7.05788ZM33.3793 16.5517C34.1792 17.3135 34.2101 18.5795 33.4483 19.3793L22.0197 31.3793C21.6297 31.7889 21.0845 32.0141 20.5191 31.9993C19.9537 31.9845 19.421 31.731 19.053 31.3016L14.4815 25.9683C13.7627 25.1296 13.8598 23.867 14.6985 23.1482C15.5371 22.4293 16.7997 22.5264 17.5185 23.3651L20.6496 27.018L30.5518 16.6207C31.3135 15.8208 32.5795 15.79 33.3793 16.5517Z" fill="#3AB67B"/>
</g>
<defs>
<clipPath id="clip0_504_264">
<rect width="48" height="48" fill="white"/>
</clipPath>
</defs>
</svg>
