<svg width="1440" height="240" viewBox="0 0 1440 240" fill="none" xmlns="http://www.w3.org/2000/svg">
<path d="M727.937 -26.9891C627.846 -19.6677 514.972 23.9116 309.899 134.035C165.754 211.595 123.105 228.287 76.5377 226.707C33.2674 225.238 -4.57511 197.568 -12.8233 161.008C-20.0308 130.256 -23.516 123.541 -31.4018 124.923C-42.2002 127.03 -40.322 156.777 -27.1773 182.784C0.62061 238.971 61.1218 255.454 145.302 230.69C182.398 219.581 261.2 183.091 336.434 142.356C547.004 28.2971 637.261 -5.33094 750.127 -12.2186C846.454 -18.0188 946.138 35.2495 1004.19 123.797C1021.03 150.341 1022.56 154.103 1016.66 157.614C919.949 211.224 851.169 280.624 812.905 362.603C801.31 388.182 798.474 398.805 797.537 426.395C795.755 466.737 804.122 487.635 827.947 502.873C841.679 511.584 848.244 512.632 875.072 512.305C960.104 511.069 1037.25 438.243 1064.73 333.635C1077.51 285.421 1073.14 219.722 1053.83 168.77C1050.01 159.57 1091.36 144.895 1148.22 134.87C1204.65 125.242 1296.48 130.42 1347.11 146.156C1409.17 165.166 1471.15 199.014 1507.12 233.217L1525.1 250.318L1484.38 246.874C1450.65 243.668 1444.05 243.856 1445.53 248.853C1446.64 252.602 1457.25 255.848 1477.79 258.606C1494.63 260.827 1515.96 264.437 1525.77 267.243C1535.16 270.036 1550.68 274.685 1560.09 277.066C1589.1 285.472 1589.15 283.824 1571.37 224.266C1562.49 194.282 1556.31 169.748 1557.54 169.79C1558.78 169.832 1557.64 166.907 1554.87 163.515C1549.73 156.744 1530.43 154.028 1530.24 159.793C1530.18 161.44 1536.06 182.666 1543.1 206.404C1550.13 230.142 1556.04 250.543 1556.01 251.367C1555.97 252.602 1545.58 242.767 1532.81 229.966C1477.39 173.253 1397.39 135.495 1300.54 120.251C1227.51 108.29 1151.84 113.142 1082.25 133.455C1060.59 139.728 1042.7 144.068 1042.32 143.23C991.029 61.9217 942.164 18.6239 871.696 -8.09197C845.217 -18.0607 783.34 -30.4679 765.166 -29.848C761.855 -29.5481 744.903 -28.4745 727.937 -26.9891ZM1041.41 206.277C1054.31 251.652 1052 307.642 1035.23 352.01C1018.49 395.554 1001.48 422.599 970.303 453.698C900.273 523.468 816.841 514.039 819.455 437.034C821.524 376.088 866.269 297.627 932.639 238.452C966.244 208.672 1021.14 171.371 1028.48 174.093C1030.52 174.575 1036.22 189.198 1041.41 206.277Z" fill="white" fill-opacity="0.2"/>
</svg>
