<svg width="375" height="392" viewBox="0 0 375 392" fill="none" xmlns="http://www.w3.org/2000/svg">
<path d="M225.371 131.924C190.157 103.366 139.518 82.7871 37.9385 55.5861C-33.5092 36.518 -52.7131 28.8168 -67.553 13.8882C-81.3423 0.0165832 -85.2381 -20.8006 -76.6414 -35.3873C-69.4989 -47.7406 -68.5687 -51.0292 -71.5919 -53.0144C-75.7985 -55.6619 -84.3842 -45.2886 -88.1039 -32.6606C-96.3383 -5.5638 -81.5224 18.5817 -46.1495 36.4757C-30.5011 44.2967 6.72962 56.6667 44.0985 66.5355C148.705 94.1415 188.821 110.998 228.105 143.652C261.609 171.547 277.941 219.925 269.655 267.036C266.985 280.984 266.322 282.694 263.296 282.025C214.873 269.749 170.759 271.314 132.798 286.46C121.066 291.293 116.846 293.912 108.001 302.705C94.9325 315.433 91.221 324.901 94.3488 337.289C96.1736 344.405 98.0108 346.781 106.943 354.975C135.316 380.877 183.245 380.774 224.658 354.842C243.781 342.924 262.67 319.945 272.078 297.197C273.669 292.989 291.819 300.95 313.639 315.243C335.196 329.536 363.821 359.653 375.618 380.496C390.167 405.958 400.095 436.275 401.353 458.664L401.982 469.858L389.641 456.123C379.532 444.634 377.299 442.651 376.24 444.754C375.446 446.332 377.936 450.685 383.842 457.947C388.699 463.888 394.604 471.677 396.963 475.635C399.192 479.461 402.862 485.793 405.223 489.488C412.17 501.23 412.698 500.705 425.273 475.598C431.626 462.979 437.182 452.99 437.576 453.386C437.97 453.783 438.5 452.468 438.637 450.493C439.042 446.676 433.53 439.811 431.682 441.648C431.154 442.173 426.522 450.979 421.492 460.97C416.463 470.96 412.095 479.504 411.831 479.766C411.435 480.16 411.057 473.707 410.815 465.542C410.119 429.725 395.468 392.545 368.304 357.561C347.964 331.027 321.555 309.213 292.363 294.368C283.289 289.729 276.058 285.623 276.191 285.229C284.466 242.595 281.777 213.223 266.847 182.625C261.215 171.151 244.685 147.921 238.51 142.502C237.328 141.577 231.415 136.685 225.371 131.924ZM256.387 305.703C246.594 324.631 228.509 342.346 209.26 351.762C190.275 360.916 176.309 364.556 156.425 365.147C111.785 366.446 87.2379 337.528 111.924 312.988C131.463 293.566 170.468 281.583 210.625 282.639C230.901 283.234 260.515 287.941 262.087 291.107C262.611 291.898 259.961 298.473 256.387 305.703Z" fill="white" fill-opacity="0.2"/>
</svg>
