<svg width="53" height="52" viewBox="0 0 53 52" fill="none" xmlns="http://www.w3.org/2000/svg">
<rect x="0.333496" width="52" height="52" rx="16" fill="url(#paint0_linear_7_101)"/>
<g clip-path="url(#clip0_7_101)">
<path d="M39.3335 26C39.3335 24.1627 38.4018 22.5431 36.9848 21.5876C37.3109 19.9106 36.8245 18.1068 35.5256 16.8068C34.2266 15.5079 32.4229 15.0215 30.7448 15.3476C29.7893 13.9306 28.1697 12.9989 26.3324 12.9989C24.495 12.9989 22.8755 13.9306 21.92 15.3476C20.243 15.0215 18.4381 15.5079 17.1392 16.8068C15.8403 18.1058 15.3539 19.9095 15.68 21.5876C14.263 22.5431 13.3313 24.1627 13.3313 26C13.3313 27.8373 14.263 29.4569 15.68 30.4124C15.3539 32.0894 15.8403 33.8943 17.1392 35.1932C18.4381 36.4921 20.2419 36.9785 21.92 36.6524C22.8755 38.0694 24.495 39.0011 26.3324 39.0011C28.1697 39.0011 29.7893 38.0694 30.7448 36.6524C32.4218 36.9785 34.2266 36.4921 35.5256 35.1932C36.8245 33.8943 37.3109 32.0905 36.9848 30.4124C38.4018 29.4569 39.3335 27.8373 39.3335 26ZM26.2349 29.7039C25.8156 30.1232 25.2642 30.3323 24.7106 30.3323C24.157 30.3323 23.6002 30.121 23.1766 29.6985L20.1628 26.7779L21.6719 25.2211L24.6976 28.1537L30.9907 21.9776L32.5117 23.5213L26.2349 29.7039Z" fill="url(#paint1_linear_7_101)"/>
</g>
<defs>
<linearGradient id="paint0_linear_7_101" x1="26.3335" y1="7.7486e-07" x2="52.3335" y2="52" gradientUnits="userSpaceOnUse">
<stop stop-color="#FFF2D7"/>
<stop offset="1" stop-color="#FCDEB1"/>
</linearGradient>
<linearGradient id="paint1_linear_7_101" x1="26.3324" y1="12.9989" x2="26.3324" y2="39.0011" gradientUnits="userSpaceOnUse">
<stop stop-color="#FF7E4B"/>
<stop offset="1" stop-color="#FFC329"/>
</linearGradient>
<clipPath id="clip0_7_101">
<rect x="13.3335" y="13" width="26" height="26" rx="13" fill="white"/>
</clipPath>
</defs>
</svg>
