<svg width="52" height="52" viewBox="0 0 52 52" fill="none" xmlns="http://www.w3.org/2000/svg">
<rect width="52" height="52" rx="16" fill="url(#paint0_linear_7_89)"/>
<path d="M29 24C29 24.2652 28.8946 24.5196 28.7071 24.7071C28.5196 24.8946 28.2652 25 28 25H24C23.7348 25 23.4804 24.8946 23.2929 24.7071C23.1054 24.5196 23 24.2652 23 24C23 23.7348 23.1054 23.4804 23.2929 23.2929C23.4804 23.1054 23.7348 23 24 23H28C28.2652 23 28.5196 23.1054 28.7071 23.2929C28.8946 23.4804 29 23.7348 29 24ZM39 19V35C39 35.5304 38.7893 36.0391 38.4142 36.4142C38.0391 36.7893 37.5304 37 37 37H15C14.4696 37 13.9609 36.7893 13.5858 36.4142C13.2107 36.0391 13 35.5304 13 35V19C13 18.4696 13.2107 17.9609 13.5858 17.5858C13.9609 17.2107 14.4696 17 15 17H20V16C20 15.2044 20.3161 14.4413 20.8787 13.8787C21.4413 13.3161 22.2044 13 23 13H29C29.7956 13 30.5587 13.3161 31.1213 13.8787C31.6839 14.4413 32 15.2044 32 16V17H37C37.5304 17 38.0391 17.2107 38.4142 17.5858C38.7893 17.9609 39 18.4696 39 19ZM22 17H30V16C30 15.7348 29.8946 15.4804 29.7071 15.2929C29.5196 15.1054 29.2652 15 29 15H23C22.7348 15 22.4804 15.1054 22.2929 15.2929C22.1054 15.4804 22 15.7348 22 16V17ZM37 24.2013V19H15V24.2013C18.3753 26.0385 22.1571 27.0007 26 27C29.8429 27.0007 33.6247 26.0385 37 24.2013Z" fill="url(#paint1_linear_7_89)"/>
<defs>
<linearGradient id="paint0_linear_7_89" x1="26" y1="7.7486e-07" x2="52" y2="52" gradientUnits="userSpaceOnUse">
<stop stop-color="#F4FFCA"/>
<stop offset="1" stop-color="#E2FA84"/>
</linearGradient>
<linearGradient id="paint1_linear_7_89" x1="26" y1="13" x2="26" y2="37" gradientUnits="userSpaceOnUse">
<stop stop-color="#5EB037"/>
<stop offset="1" stop-color="#98D31A"/>
</linearGradient>
</defs>
</svg>
