<svg width="52" height="52" viewBox="0 0 52 52" fill="none" xmlns="http://www.w3.org/2000/svg">
<rect width="52" height="52" rx="16" fill="url(#paint0_linear_7_95)"/>
<path d="M31.9997 34.9048C32.6895 34.633 33.358 34.3101 33.9997 33.9386V38.9998C33.9997 39.2651 33.8943 39.5194 33.7068 39.7069C33.5193 39.8945 33.2649 39.9998 32.9997 39.9998C32.7345 39.9998 32.4801 39.8945 32.2926 39.7069C32.105 39.5194 31.9997 39.2651 31.9997 38.9998V34.9048ZM33.4697 23.8511L26.4697 20.1173C26.2361 19.998 25.9651 19.9753 25.7149 20.0539C25.4647 20.1326 25.2555 20.3064 25.1322 20.5378C25.0089 20.7693 24.9815 21.0399 25.0558 21.2914C25.1302 21.5429 25.3004 21.7551 25.5297 21.8823L31.3747 24.9998L33.4997 23.8673L33.4697 23.8511ZM41.4697 20.1173L26.4697 12.1173C26.325 12.0403 26.1636 12 25.9997 12C25.8358 12 25.6744 12.0403 25.5297 12.1173L10.5297 20.1173C10.3697 20.2026 10.2359 20.3298 10.1426 20.4852C10.0493 20.6407 10 20.8185 10 20.9998C10 21.1811 10.0493 21.359 10.1426 21.5145C10.2359 21.6699 10.3697 21.7971 10.5297 21.8823C12.6656 23.0218 13.9997 25.2457 13.9997 27.6665V29.7861C13.9986 30.2773 14.1794 30.7515 14.5072 31.1173C16.1447 32.9411 19.8134 35.9998 25.9997 35.9998C28.0509 36.0168 30.0867 35.6453 31.9997 34.9048V26.0421C31.9997 25.606 31.7594 25.2053 31.3747 24.9998C28.0155 26.7912 23.9844 26.7903 20.6259 24.9976L15.4784 22.2498C14.4753 21.7171 14.4741 20.2802 15.4763 19.7457L23.1534 15.6515C24.9323 14.7028 27.067 14.7028 28.846 15.6515L36.8035 19.8953C37.6868 20.3663 37.6864 21.6326 36.8028 22.1031L36.5305 22.2481C36.5283 22.2492 36.5259 22.2498 36.5234 22.2498C36.521 22.2498 36.5185 22.2504 36.5164 22.2516L33.4997 23.8673C33.6517 23.9551 33.778 24.0814 33.8658 24.2335C33.9535 24.3855 33.9997 24.558 33.9997 24.7336V33.9386C35.3037 33.1858 36.4821 32.2339 37.4922 31.1173C37.82 30.7515 38.0007 30.2773 37.9997 29.7861V27.6665C37.9997 25.2457 39.3338 23.0218 41.4697 21.8823C41.6297 21.7971 41.7635 21.6699 41.8568 21.5145C41.9501 21.359 41.9994 21.1811 41.9994 20.9998C41.9994 20.8185 41.9501 20.6407 41.8568 20.4852C41.7635 20.3298 41.6297 20.2026 41.4697 20.1173Z" fill="white"/>
<path d="M31.9997 34.9048C32.6895 34.633 33.358 34.3101 33.9997 33.9386V38.9998C33.9997 39.2651 33.8943 39.5194 33.7068 39.7069C33.5193 39.8945 33.2649 39.9998 32.9997 39.9998C32.7345 39.9998 32.4801 39.8945 32.2926 39.7069C32.105 39.5194 31.9997 39.2651 31.9997 38.9998V34.9048ZM33.4697 23.8511L26.4697 20.1173C26.2361 19.998 25.9651 19.9753 25.7149 20.0539C25.4647 20.1326 25.2555 20.3064 25.1322 20.5378C25.0089 20.7693 24.9815 21.0399 25.0558 21.2914C25.1302 21.5429 25.3004 21.7551 25.5297 21.8823L31.3747 24.9998L33.4997 23.8673L33.4697 23.8511ZM41.4697 20.1173L26.4697 12.1173C26.325 12.0403 26.1636 12 25.9997 12C25.8358 12 25.6744 12.0403 25.5297 12.1173L10.5297 20.1173C10.3697 20.2026 10.2359 20.3298 10.1426 20.4852C10.0493 20.6407 10 20.8185 10 20.9998C10 21.1811 10.0493 21.359 10.1426 21.5145C10.2359 21.6699 10.3697 21.7971 10.5297 21.8823C12.6656 23.0218 13.9997 25.2457 13.9997 27.6665V29.7861C13.9986 30.2773 14.1794 30.7515 14.5072 31.1173C16.1447 32.9411 19.8134 35.9998 25.9997 35.9998C28.0509 36.0168 30.0867 35.6453 31.9997 34.9048V26.0421C31.9997 25.606 31.7594 25.2053 31.3747 24.9998C28.0155 26.7912 23.9844 26.7903 20.6259 24.9976L15.4784 22.2498C14.4753 21.7171 14.4741 20.2802 15.4763 19.7457L23.1534 15.6515C24.9323 14.7028 27.067 14.7028 28.846 15.6515L36.8035 19.8953C37.6868 20.3663 37.6864 21.6326 36.8028 22.1031L36.5305 22.2481C36.5283 22.2492 36.5259 22.2498 36.5234 22.2498C36.521 22.2498 36.5185 22.2504 36.5164 22.2516L33.4997 23.8673C33.6517 23.9551 33.778 24.0814 33.8658 24.2335C33.9535 24.3855 33.9997 24.558 33.9997 24.7336V33.9386C35.3037 33.1858 36.4821 32.2339 37.4922 31.1173C37.82 30.7515 38.0007 30.2773 37.9997 29.7861V27.6665C37.9997 25.2457 39.3338 23.0218 41.4697 21.8823C41.6297 21.7971 41.7635 21.6699 41.8568 21.5145C41.9501 21.359 41.9994 21.1811 41.9994 20.9998C41.9994 20.8185 41.9501 20.6407 41.8568 20.4852C41.7635 20.3298 41.6297 20.2026 41.4697 20.1173Z" fill="url(#paint1_linear_7_95)"/>
<defs>
<linearGradient id="paint0_linear_7_95" x1="26" y1="7.7486e-07" x2="52" y2="52" gradientUnits="userSpaceOnUse">
<stop stop-color="#F7EFFF"/>
<stop offset="1" stop-color="#E5CDFF"/>
</linearGradient>
<linearGradient id="paint1_linear_7_95" x1="25.9997" y1="12" x2="25.9997" y2="39.9998" gradientUnits="userSpaceOnUse">
<stop stop-color="#B33BEB"/>
<stop offset="1" stop-color="#DD94FF"/>
</linearGradient>
</defs>
</svg>
