<svg width="53" height="52" viewBox="0 0 53 52" fill="none" xmlns="http://www.w3.org/2000/svg">
<rect x="0.666626" width="52" height="52" rx="16" fill="url(#paint0_linear_7_107)"/>
<path d="M31 26.2362L32.8825 30H29.1175L29.9125 28.4125L31 26.2362ZM39 16V36C39 36.5304 38.7893 37.0391 38.4142 37.4142C38.0391 37.7893 37.5304 38 37 38H17C16.4696 38 15.9609 37.7893 15.5858 37.4142C15.2107 37.0391 15 36.5304 15 36V16C15 15.4696 15.2107 14.9609 15.5858 14.5858C15.9609 14.2107 16.4696 14 17 14H37C37.5304 14 38.0391 14.2107 38.4142 14.5858C38.7893 14.9609 39 15.4696 39 16ZM36.895 33.5525L31.895 23.5525C31.8121 23.3861 31.6844 23.2461 31.5263 23.1483C31.3682 23.0504 31.1859 22.9986 31 22.9986C30.8141 22.9986 30.6318 23.0504 30.4737 23.1483C30.3156 23.2461 30.1879 23.3861 30.105 23.5525L28.4575 26.85C27.3977 26.6424 26.3927 26.2168 25.5063 25.6C26.8879 24.0358 27.7428 22.0767 27.95 20H30C30.2652 20 30.5196 19.8946 30.7071 19.7071C30.8946 19.5196 31 19.2652 31 19C31 18.7348 30.8946 18.4804 30.7071 18.2929C30.5196 18.1054 30.2652 18 30 18H25V17C25 16.7348 24.8946 16.4804 24.7071 16.2929C24.5196 16.1054 24.2652 16 24 16C23.7348 16 23.4804 16.1054 23.2929 16.2929C23.1054 16.4804 23 16.7348 23 17V18H18C17.7348 18 17.4804 18.1054 17.2929 18.2929C17.1054 18.4804 17 18.7348 17 19C17 19.2652 17.1054 19.5196 17.2929 19.7071C17.4804 19.8946 17.7348 20 18 20H25.935C25.7366 21.5778 25.0705 23.0602 24.0225 24.2563C23.5785 23.7379 23.2006 23.1665 22.8975 22.555C22.7747 22.326 22.5675 22.1538 22.3199 22.0748C22.0723 21.9959 21.8037 22.0165 21.571 22.1322C21.3383 22.2479 21.1598 22.4496 21.0733 22.6947C20.9867 22.9397 20.999 23.2088 21.1075 23.445C21.4902 24.2168 21.969 24.9371 22.5325 25.5887C21.2006 26.5096 19.6193 27.002 18 27C17.7348 27 17.4804 27.1054 17.2929 27.2929C17.1054 27.4804 17 27.7348 17 28C17 28.2652 17.1054 28.5196 17.2929 28.7071C17.4804 28.8946 17.7348 29 18 29C20.1709 29.0023 22.283 28.2942 24.0138 26.9837C25.061 27.7842 26.2591 28.365 27.5362 28.6912L25.105 33.5525C24.9863 33.7899 24.9668 34.0647 25.0507 34.3164C25.1346 34.5682 25.3151 34.7763 25.5525 34.895C25.7899 35.0137 26.0647 35.0332 26.3164 34.9493C26.5682 34.8654 26.7763 34.6849 26.895 34.4475L28.1175 32H33.8825L35.105 34.4475C35.1638 34.565 35.2451 34.6698 35.3444 34.7559C35.4437 34.842 35.5589 34.9077 35.6836 34.9493C35.8082 34.9908 35.9399 35.0074 36.0709 34.9981C36.202 34.9888 36.33 34.9538 36.4475 34.895C36.565 34.8362 36.6698 34.7549 36.7559 34.6556C36.842 34.5563 36.9077 34.4411 36.9493 34.3164C36.9908 34.1918 37.0074 34.0601 36.9981 33.9291C36.9888 33.798 36.9538 33.67 36.895 33.5525Z" fill="url(#paint1_linear_7_107)"/>
<defs>
<linearGradient id="paint0_linear_7_107" x1="26.6666" y1="7.7486e-07" x2="52.6666" y2="52" gradientUnits="userSpaceOnUse">
<stop stop-color="#FFEBEE"/>
<stop offset="1" stop-color="#FFC5C8"/>
</linearGradient>
<linearGradient id="paint1_linear_7_107" x1="27" y1="14" x2="27" y2="38" gradientUnits="userSpaceOnUse">
<stop stop-color="#FF4040"/>
<stop offset="1" stop-color="#FF9197"/>
</linearGradient>
</defs>
</svg>
