<svg width="32" height="32" viewBox="0 0 32 32" fill="none" xmlns="http://www.w3.org/2000/svg">
<path d="M16.0364 0H15.9636C7.14714 0 0 7.14923 0 15.9683V16.0412C0 24.8602 7.14714 32.0094 15.9636 32.0094H16.0364C24.8529 32.0094 32 24.8602 32 16.0412V15.9683C32 7.14923 24.8529 0 16.0364 0Z" fill="white"/>
<path d="M7.63142 10.6391C7.20988 10.2477 7.00024 9.76327 7.00024 9.18685C7.00024 8.61043 7.211 8.10465 7.63142 7.71215C8.05296 7.32076 8.59558 7.12451 9.2604 7.12451C9.92522 7.12451 10.4466 7.32076 10.867 7.71215C11.2885 8.10353 11.4981 8.59585 11.4981 9.18685C11.4981 9.77785 11.2874 10.2477 10.867 10.6391C10.4454 11.0305 9.91065 11.2268 9.2604 11.2268C8.61016 11.2268 8.05296 11.0305 7.63142 10.6391ZM11.1439 12.8843V24.8837H7.35338V12.8843H11.1439Z" fill="#A31112"/>
<path d="M23.7621 14.0694C24.5883 14.9665 25.0009 16.1979 25.0009 17.7657V24.6715H21.401V18.2524C21.401 17.4617 21.1959 16.8472 20.7867 16.4098C20.3775 15.9725 19.8259 15.7527 19.1353 15.7527C18.4447 15.7527 17.893 15.9713 17.4838 16.4098C17.0746 16.8472 16.8695 17.4617 16.8695 18.2524V24.6715H13.2483V12.8504H16.8695V14.4181C17.2361 13.8955 17.7305 13.4829 18.3516 13.1789C18.9727 12.875 19.6712 12.7236 20.4481 12.7236C21.8315 12.7236 22.9369 13.1722 23.7621 14.0682V14.0694Z" fill="#A31112"/>
</svg>
