<svg width="42" height="55" viewBox="0 0 42 55" fill="none" xmlns="http://www.w3.org/2000/svg">
<g clip-path="url(#clip0_22_386)">
<path d="M17.2673 7.36539C15.5314 9.77771 13.9341 12.2886 12.4833 14.8856C9.4599 20.2699 7.366 26.134 6.29114 32.227C5.82925 34.5207 5.72022 36.8726 5.96791 39.1998C6.05894 39.997 6.24395 40.7803 6.51901 41.5332C6.86563 42.6157 7.54598 43.558 8.46076 44.2226C9.37554 44.8872 10.4769 45.2394 11.604 45.2277C12.0015 45.2286 12.3987 45.2499 12.7941 45.2915C12.5464 45.4527 12.2987 45.6277 12.0337 45.7726C10.1782 46.8451 7.98273 47.1489 5.9097 46.62C4.99792 46.4421 4.16536 45.9775 3.53132 45.2927C2.89729 44.6079 2.49432 43.7382 2.38018 42.808C2.08569 40.9725 2.07817 39.1017 2.35789 37.2638C2.9183 33.348 3.98803 29.5239 5.53941 25.8904C8.05891 19.7659 11.4768 14.0587 15.6784 8.96017C16.1456 8.37147 16.6503 7.8141 17.1893 7.29164C17.2586 7.27165 17.2908 7.2904 17.2673 7.36539Z" fill="#FCFCFC"/>
<path d="M22.3993 37.3087C22.8519 36.8661 23.2755 36.3944 23.6675 35.8964C24.2743 35.159 24.8428 34.3966 25.3889 33.6092C25.4345 33.5254 25.4974 33.4525 25.5734 33.3955C26.3165 32.9893 27.0756 32.5944 27.8967 32.1607V33.8642C27.886 33.9598 27.8462 34.0498 27.7828 34.1217C25.4041 37.8213 22.5828 41.2109 19.3825 44.214C17.3815 46.1694 15.0001 47.6844 12.3891 48.6634C10.5516 49.3971 8.5191 49.4664 6.63666 48.8597C5.19438 48.3321 4.01005 47.2622 3.3313 45.8738C3.48858 45.9638 3.56659 45.9988 3.63347 46.0488C4.52512 46.6926 5.54943 47.1247 6.62985 47.3128C7.71026 47.5009 8.81882 47.44 9.87266 47.1349C11.4861 46.7182 13.0055 45.9931 14.3483 44.9989C17.0358 43.0568 19.478 40.7902 21.6204 38.2498C21.1721 38.2498 20.8142 38.2273 20.4625 38.2561C20.1541 38.2811 20.06 38.1961 20.0624 37.8686C20.0761 35.0903 20.0624 32.3132 20.0773 29.5348C20.0773 29.2361 20.0327 29.1136 19.6971 29.1323C19.1287 29.1661 18.559 29.1323 17.9893 29.1448C17.8048 29.1448 17.7057 29.1198 17.7131 28.8949C17.7292 28.4037 17.7231 27.9125 17.7131 27.4226C17.7131 27.2413 17.7652 27.1726 17.9608 27.1726C20.1677 27.1776 22.3742 27.1776 24.5802 27.1726C24.7561 27.1726 24.8044 27.2426 24.8019 27.4076C24.8019 27.9075 24.7908 28.4074 24.8019 28.9161C24.8019 29.1223 24.714 29.1486 24.5455 29.1461C23.904 29.1386 23.265 29.1461 22.6235 29.1386C22.4216 29.1386 22.3597 29.1948 22.361 29.4011C22.3667 31.9757 22.3667 34.5499 22.361 37.1237C22.3684 37.165 22.3795 37.2 22.3993 37.3087Z" fill="#FCFCFC"/>
<path d="M33.2939 23.3931C33.8821 21.0993 34.3214 18.7693 34.6091 16.4178C34.9829 13.7099 34.9491 10.9604 34.5087 8.26268C34.3275 7.27344 34.0229 6.31133 33.6022 5.39932C33.1562 4.34721 32.3774 3.47381 31.3875 2.91554C30.3977 2.35727 29.2525 2.14557 28.1309 2.31349C26.4136 2.51843 24.7762 3.161 23.3728 4.18074C21.2999 5.60222 19.4096 7.27771 17.7454 9.16881C16.3968 10.6349 15.1522 12.1909 13.9298 13.7644C13.806 13.7644 13.8146 13.6994 13.8568 13.617C16.2769 9.32686 19.5294 5.57337 23.4199 2.58096C24.9024 1.45277 26.5972 0.641367 28.4008 0.196282C29.1743 -0.0219865 29.9831 -0.0819767 30.7798 0.0198434C31.5765 0.121664 32.345 0.383235 33.0401 0.789177C33.7352 1.19512 34.3429 1.73724 34.8273 2.38364C35.3118 3.03005 35.6633 3.76769 35.8611 4.55319C36.4388 6.43366 36.6677 8.4056 36.5361 10.3699C36.2557 14.6414 35.296 18.8395 33.6939 22.8032C33.5849 23.0944 33.4685 23.3819 33.3545 23.6718C33.1935 23.6093 33.2604 23.4981 33.2939 23.3931Z" fill="#FCFCFC"/>
<path d="M20.7671 55.0012C20.5476 54.7989 20.2863 54.6485 20.002 54.5607C19.7178 54.4729 19.4178 54.4501 19.1237 54.4938C13.1669 54.4938 7.20961 54.4938 1.25195 54.4938C0.943583 54.4938 0.632746 54.4788 0.325616 54.4938C0.0853613 54.5063 0.0221941 54.4138 0.0296246 54.1814C0.0453114 53.6664 0.0453114 53.1515 0.0296246 52.6366C0.0221941 52.3941 0.107648 52.3366 0.335518 52.3379C1.66435 52.3479 2.99442 52.3379 4.32325 52.3379H18.7423C19.0862 52.3277 19.4302 52.3533 19.7689 52.4141C20.0134 52.4449 20.2407 52.5574 20.4146 52.7335C20.5886 52.9097 20.6991 53.1396 20.7287 53.3865C20.7849 53.9228 20.7977 54.4628 20.7671 55.0012Z" fill="#FCFCFC"/>
<path d="M21.2613 54.9975C21.2256 54.4951 21.231 53.9905 21.2773 53.489C21.2887 53.2155 21.3985 52.9556 21.5861 52.758C21.7738 52.5604 22.0264 52.4385 22.2966 52.4154C22.5772 52.3637 22.8622 52.3407 23.1474 52.3466C29.3065 52.3466 35.4656 52.3441 41.6247 52.3391C41.9294 52.3391 42.0074 52.4291 41.9962 52.7228C41.9727 53.2015 41.9727 53.6815 41.9962 54.1589C42.0099 54.4376 41.9132 54.4988 41.6532 54.4976C39.7311 54.4888 37.8079 54.4976 35.8858 54.4976H23.2824H22.8551C22.5693 54.4565 22.2781 54.48 22.0024 54.5664C21.7267 54.6529 21.4736 54.8001 21.2613 54.9975Z" fill="#FCFCFC"/>
<path d="M36.4258 33.6704C36.4258 32.2693 36.4196 30.8683 36.4258 29.4672C36.4258 29.2172 36.3688 29.1347 36.1125 29.1435C35.5317 29.1622 34.9509 29.1435 34.3688 29.1535C34.1484 29.1535 34.0505 29.1135 34.0616 28.8623C34.0815 28.3836 34.074 27.9037 34.0616 27.4262C34.0616 27.2388 34.1223 27.1763 34.3093 27.1763C36.5038 27.1813 38.6987 27.1813 40.894 27.1763C41.0786 27.1763 41.1417 27.2338 41.1417 27.4262C41.1318 27.9174 41.1294 28.4086 41.1417 28.8985C41.1479 29.1135 41.0612 29.1585 40.8693 29.1485C40.2637 29.1385 39.6593 29.1635 39.055 29.1373C38.7578 29.1248 38.7082 29.2322 38.7082 29.5022C38.7082 32.2806 38.702 35.0577 38.7082 37.8361C38.7082 38.1535 38.6463 38.2798 38.3033 38.2585C37.7938 38.2311 37.2833 38.2311 36.7738 38.2585C36.4952 38.271 36.4097 38.1923 36.4122 37.9023C36.4332 36.495 36.4258 35.0827 36.4258 33.6704Z" fill="#FCFCFC"/>
<path d="M31.8449 20.751C31.6443 22.632 31.456 24.463 31.2517 26.2927C31.1799 26.9326 31.1638 26.9314 31.8065 26.9314H33.4623C33.5131 27.0751 33.4115 27.1014 33.3533 27.1464C32.6387 27.7013 31.9266 28.2575 31.2059 28.8049C31.1221 28.8592 31.0523 28.9328 31.0023 29.0198C30.9524 29.1067 30.9236 29.2044 30.9186 29.3048C30.8418 30.3297 30.7464 31.3545 30.6548 32.3794C30.6461 32.4719 30.6857 32.6006 30.5929 32.6444C30.469 32.7044 30.4195 32.5531 30.3539 32.4831C29.882 31.9832 29.4002 31.4833 28.9581 30.9508C28.755 30.7096 28.6114 30.7284 28.3674 30.8758C27.1686 31.6045 25.9586 32.3131 24.7499 33.0256C24.7007 33.0697 24.6433 33.1035 24.581 33.1249C24.5187 33.1464 24.4528 33.1551 24.3871 33.1505C24.8069 32.4769 25.2119 31.8257 25.6181 31.1746C26.0677 30.4559 26.511 29.7335 26.9804 29.0248C27.0188 28.9854 27.0486 28.9385 27.0681 28.8868C27.0876 28.8352 27.0963 28.78 27.0936 28.7248C27.091 28.6696 27.077 28.6156 27.0526 28.5661C27.0282 28.5167 26.9939 28.4729 26.9519 28.4374C26.6002 28.0487 26.2806 27.6301 25.9525 27.2226C25.8967 27.1526 25.784 27.0876 25.8361 26.9839C25.8881 26.8801 26.0082 26.9326 26.0961 26.9326C26.7153 26.9326 27.3346 26.9164 27.9464 26.9326C28.0558 26.944 28.1659 26.9193 28.2603 26.8623C28.3547 26.8053 28.4283 26.7191 28.4702 26.6164C29.5047 24.76 30.547 22.9082 31.5972 21.0609C31.6441 20.9331 31.7311 20.8243 31.8449 20.751Z" fill="#FBED23"/>
<path d="M20.9084 51.7005C20.9543 51.7117 21.0022 51.7112 21.0478 51.6989C21.0935 51.6867 21.1353 51.6632 21.1697 51.6305C21.5777 51.3346 22.0692 51.179 22.5716 51.1868C22.7734 51.1806 22.9753 51.1668 23.1759 51.1668H41.6087C41.8118 51.1668 41.9988 51.1268 42 51.4593C42.0013 51.7917 41.922 51.8567 41.605 51.8555C35.5317 51.8455 29.4589 51.843 23.3865 51.848C22.9482 51.8297 22.5091 51.8564 22.0762 51.9279C21.7422 51.9592 21.4301 52.1094 21.1957 52.3516C21.0174 52.5728 20.9158 52.5016 20.8155 52.2954C20.8217 52.0929 20.7461 51.8779 20.9084 51.7005Z" fill="#FCFCFC"/>
<path d="M20.9083 51.7005C20.865 51.8967 20.9888 52.1204 20.8142 52.2954C20.414 52.0154 19.9389 51.8646 19.4519 51.8629C19.156 51.8442 18.8587 51.848 18.5615 51.848C12.5229 51.848 6.48395 51.848 0.44456 51.848C0.0532173 51.848 -0.0644294 51.6817 0.0420752 51.3005C0.0475738 51.2661 0.0648349 51.2349 0.0908576 51.212C0.11688 51.1892 0.150014 51.1763 0.184492 51.1756C0.278612 51.1756 0.373975 51.1756 0.469334 51.1756C6.55661 51.1756 12.6431 51.1756 18.7287 51.1756C19.1797 51.1572 19.6313 51.1903 20.0749 51.2743C20.3885 51.3296 20.6787 51.4779 20.9083 51.7005Z" fill="#FCFCFC"/>
<path d="M28.4529 31.7844C29.1216 32.4356 29.7136 33.0117 30.3105 33.5879C30.3444 33.6293 30.3688 33.6779 30.3819 33.73C30.395 33.7821 30.3964 33.8364 30.3861 33.8892C30.3861 35.2527 30.3861 36.6163 30.3861 37.9798C30.3861 38.2023 30.3155 38.2698 30.1 38.2636C29.6381 38.2498 29.1749 38.2548 28.7142 38.2636C28.5532 38.2636 28.4454 38.2486 28.4467 38.0373C28.4529 35.9914 28.4529 33.9479 28.4529 31.7844Z" fill="#FCFCFC"/>
<path d="M33.0746 24.1118C33.0758 23.9526 33.1217 23.797 33.2071 23.6631C33.2876 23.6918 33.2467 23.7881 33.3 23.8306C33.2776 23.9587 33.2258 24.0798 33.1489 24.1843C33.0832 24.203 33.051 24.1868 33.0746 24.1118Z" fill="#FCFCFC"/>
<path d="M13.853 13.6169C13.8666 13.6719 13.853 13.7419 13.9261 13.7644C13.8874 13.8811 13.8122 13.982 13.7118 14.0519C13.6927 14.0502 13.6746 14.0422 13.6605 14.0291C13.6464 14.016 13.637 13.9985 13.6338 13.9794C13.6724 13.8405 13.7483 13.7151 13.853 13.6169Z" fill="#FCFCFC"/>
<path d="M13.6338 13.9795L13.7118 14.052C13.7118 14.1557 13.6015 14.1869 13.5607 14.2657C13.4975 14.2782 13.4591 14.2657 13.4926 14.1907C13.4933 14.1455 13.5071 14.1015 13.5321 14.064C13.5572 14.0265 13.5925 13.9971 13.6338 13.9795Z" fill="#FCFCFC"/>
<path d="M13.4257 14.483L13.2337 14.7567C13.2214 14.6933 13.2256 14.6278 13.2457 14.5664C13.2659 14.5051 13.3014 14.4501 13.3489 14.4067C13.396 14.4117 13.4034 14.4555 13.4257 14.483Z" fill="#FCFCFC"/>
<path d="M33.0746 24.1118L33.1501 24.1843C33.161 24.2322 33.1577 24.2823 33.1405 24.3284C33.1233 24.3744 33.0931 24.4143 33.0535 24.443C33.0163 24.3948 32.9978 24.3344 33.0017 24.2734C33.0056 24.2123 33.0315 24.1549 33.0746 24.1118Z" fill="#FCFCFC"/>
<path d="M33.3 23.8305C33.2195 23.803 33.2244 23.7268 33.2071 23.663C33.2054 23.5658 33.2359 23.4708 33.2938 23.3931C33.331 23.4818 33.2529 23.5955 33.352 23.6718L33.3 23.8305Z" fill="#FCFCFC"/>
<path d="M13.4258 14.4832L13.349 14.4082L13.4927 14.1895L13.5608 14.2644C13.51 14.3394 13.4716 14.4107 13.4258 14.4832Z" fill="#FCFCFC"/>
<path d="M17.2673 7.36526L17.1918 7.29153C17.224 7.21029 17.3008 7.10905 17.3602 7.16654C17.4518 7.25528 17.3292 7.30902 17.2673 7.36526Z" fill="#FCFCFC"/>
<path d="M15.0964 27.7125C14.5402 27.4708 13.9496 27.3197 13.3465 27.265C11.9731 27.1313 10.5959 27.1726 9.22003 27.1713C8.91537 27.1713 8.81629 27.2376 8.81877 27.565C8.83611 29.2898 8.82744 31.0133 8.82744 32.7393C8.82744 34.4653 8.83735 36.1638 8.81877 37.8773C8.81877 38.2048 8.9129 38.2823 9.22003 38.2673C9.76494 38.2423 10.3111 38.2473 10.8572 38.2673C11.1049 38.2761 11.178 38.1998 11.1755 37.9473C11.1631 36.7862 11.1755 35.6239 11.1631 34.4628C11.1631 34.1579 11.2511 34.0879 11.5347 34.0879C12.5564 34.1392 13.5796 34.0218 14.5638 33.7404C15.1447 33.5996 15.6733 33.2936 16.0871 32.8588C16.5009 32.4239 16.7824 31.8784 16.8983 31.287C17.0824 30.5719 17.0007 29.8135 16.6688 29.155C16.3368 28.4965 15.7775 27.9834 15.0964 27.7125ZM13.5805 31.9694C12.8366 32.1134 12.0767 32.1554 11.3216 32.0944C11.1321 32.1031 11.1705 31.9494 11.1705 31.8369C11.1705 31.4307 11.1705 31.0233 11.1705 30.6183C11.1705 30.2134 11.1805 29.8284 11.1705 29.436C11.1631 29.2248 11.2114 29.1348 11.443 29.1473C12.1044 29.1241 12.7665 29.1483 13.4245 29.2198C13.7582 29.2486 14.0724 29.3903 14.3163 29.6219C14.5602 29.8535 14.7194 30.1615 14.7682 30.4959C14.7598 30.8395 14.6387 31.1707 14.4237 31.4374C14.2088 31.704 13.9122 31.8912 13.5805 31.9694Z" fill="#FCFCFC"/>
</g>
<defs>
<clipPath id="clip0_22_386">
<rect width="42" height="55" fill="white"/>
</clipPath>
</defs>
</svg>
