<svg width="49" height="48" viewBox="0 0 49 48" fill="none" xmlns="http://www.w3.org/2000/svg">
<rect x="0.25" width="48" height="48" rx="24" fill="#C31414"/>
<path d="M36.2501 17.8119V13.9956C36.2501 13.4652 36.0394 12.9565 35.6643 12.5814C35.2893 12.2063 34.7806 11.9956 34.2501 11.9956H12.2501C11.7197 11.9956 11.211 12.2063 10.8359 12.5814C10.4608 12.9565 10.2501 13.4652 10.2501 13.9956V29.9956C10.2501 30.526 10.4608 31.0347 10.8359 31.4098C11.211 31.7849 11.7197 31.9956 12.2501 31.9956H27.2501V34.9956C27.2485 35.1719 27.2936 35.3455 27.3807 35.4988C27.4678 35.652 27.5939 35.7795 27.7462 35.8684C27.8985 35.9572 28.0716 36.0042 28.2479 36.0046C28.4242 36.005 28.5974 35.9588 28.7501 35.8706L31.7501 34.1531L34.7501 35.8706C34.9028 35.9588 35.0761 36.005 35.2524 36.0046C35.4287 36.0042 35.6017 35.9572 35.754 35.8684C35.9063 35.7795 36.0324 35.652 36.1195 35.4988C36.2067 35.3455 36.2517 35.1719 36.2501 34.9956V27.1794C36.8823 26.574 37.3853 25.8469 37.729 25.042C38.0727 24.237 38.2498 23.3709 38.2498 22.4956C38.2498 21.6204 38.0727 20.7542 37.729 19.9492C37.3853 19.1443 36.8823 18.4172 36.2501 17.8119ZM23.2501 24.9956H16.2501C15.9849 24.9956 15.7306 24.8902 15.543 24.7027C15.3555 24.5152 15.2501 24.2608 15.2501 23.9956C15.2501 23.7304 15.3555 23.476 15.543 23.2885C15.7306 23.101 15.9849 22.9956 16.2501 22.9956H23.2501C23.5153 22.9956 23.7697 23.101 23.9572 23.2885C24.1448 23.476 24.2501 23.7304 24.2501 23.9956C24.2501 24.2608 24.1448 24.5152 23.9572 24.7027C23.7697 24.8902 23.5153 24.9956 23.2501 24.9956ZM23.2501 20.9956H16.2501C15.9849 20.9956 15.7306 20.8902 15.543 20.7027C15.3555 20.5152 15.2501 20.2608 15.2501 19.9956C15.2501 19.7304 15.3555 19.476 15.543 19.2885C15.7306 19.101 15.9849 18.9956 16.2501 18.9956H23.2501C23.5153 18.9956 23.7697 19.101 23.9572 19.2885C24.1448 19.476 24.2501 19.7304 24.2501 19.9956C24.2501 20.2608 24.1448 20.5152 23.9572 20.7027C23.7697 20.8902 23.5153 20.9956 23.2501 20.9956ZM34.2501 33.2719L32.2501 32.1269C32.099 32.0405 31.9279 31.995 31.7539 31.995C31.5798 31.995 31.4087 32.0405 31.2576 32.1269L29.2576 33.2719V28.4956C30.0496 28.8265 30.8993 28.9969 31.7576 28.9969C32.6159 28.9969 33.4657 28.8265 34.2576 28.4956L34.2501 33.2719ZM31.7501 26.9956C30.8601 26.9956 29.9901 26.7317 29.2501 26.2372C28.51 25.7428 27.9333 25.0399 27.5927 24.2177C27.2521 23.3954 27.163 22.4906 27.3366 21.6177C27.5102 20.7448 27.9388 19.943 28.5681 19.3136C29.1975 18.6843 29.9993 18.2557 30.8722 18.0821C31.7451 17.9084 32.6499 17.9976 33.4722 18.3381C34.2945 18.6787 34.9973 19.2555 35.4917 19.9955C35.9862 20.7356 36.2501 21.6056 36.2501 22.4956C36.2501 23.0866 36.1337 23.6717 35.9076 24.2177C35.6814 24.7636 35.35 25.2597 34.9321 25.6776C34.5142 26.0954 34.0182 26.4269 33.4722 26.6531C32.9262 26.8792 32.3411 26.9956 31.7501 26.9956Z" fill="white"/>
</svg>
