<svg width="49" height="48" viewBox="0 0 49 48" fill="none" xmlns="http://www.w3.org/2000/svg">
<rect x="0.75" width="48" height="48" rx="24" fill="#C31414"/>
<path d="M34.75 12H14.75C14.2196 12 13.7109 12.2107 13.3358 12.5858C12.9607 12.9609 12.75 13.4696 12.75 14V34C12.75 34.5304 12.9607 35.0391 13.3358 35.4142C13.7109 35.7893 14.2196 36 14.75 36H34.75C35.2804 36 35.7891 35.7893 36.1642 35.4142C36.5393 35.0391 36.75 34.5304 36.75 34V14C36.75 13.4696 36.5393 12.9609 36.1642 12.5858C35.7891 12.2107 35.2804 12 34.75 12ZM27.0425 17.7075C26.8549 17.5199 26.7494 17.2654 26.7494 17C26.7494 16.7346 26.8549 16.4801 27.0425 16.2925C27.2301 16.1049 27.4846 15.9994 27.75 15.9994C28.0154 15.9994 28.2699 16.1049 28.4575 16.2925L29.75 17.5863L31.0425 16.2925C31.2301 16.1049 31.4846 15.9994 31.75 15.9994C32.0154 15.9994 32.2699 16.1049 32.4575 16.2925C32.6451 16.4801 32.7506 16.7346 32.7506 17C32.7506 17.2654 32.6451 17.5199 32.4575 17.7075L31.1637 19L32.4575 20.2925C32.5504 20.3854 32.6241 20.4957 32.6744 20.6171C32.7247 20.7385 32.7506 20.8686 32.7506 21C32.7506 21.1314 32.7247 21.2615 32.6744 21.3829C32.6241 21.5043 32.5504 21.6146 32.4575 21.7075C32.3646 21.8004 32.2543 21.8741 32.1329 21.9244C32.0115 21.9747 31.8814 22.0006 31.75 22.0006C31.6186 22.0006 31.4885 21.9747 31.3671 21.9244C31.2457 21.8741 31.1354 21.8004 31.0425 21.7075L29.75 20.4137L28.4575 21.7075C28.2699 21.8951 28.0154 22.0006 27.75 22.0006C27.4846 22.0006 27.2301 21.8951 27.0425 21.7075C26.8549 21.5199 26.7494 21.2654 26.7494 21C26.7494 20.7346 26.8549 20.4801 27.0425 20.2925L28.3363 19L27.0425 17.7075ZM22.75 30H20.75V32C20.75 32.2652 20.6446 32.5196 20.4571 32.7071C20.2696 32.8946 20.0152 33 19.75 33C19.4848 33 19.2304 32.8946 19.0429 32.7071C18.8554 32.5196 18.75 32.2652 18.75 32V30H16.75C16.4848 30 16.2304 29.8946 16.0429 29.7071C15.8554 29.5196 15.75 29.2652 15.75 29C15.75 28.7348 15.8554 28.4804 16.0429 28.2929C16.2304 28.1054 16.4848 28 16.75 28H18.75V26C18.75 25.7348 18.8554 25.4804 19.0429 25.2929C19.2304 25.1054 19.4848 25 19.75 25C20.0152 25 20.2696 25.1054 20.4571 25.2929C20.6446 25.4804 20.75 25.7348 20.75 26V28H22.75C23.0152 28 23.2696 28.1054 23.4571 28.2929C23.6446 28.4804 23.75 28.7348 23.75 29C23.75 29.2652 23.6446 29.5196 23.4571 29.7071C23.2696 29.8946 23.0152 30 22.75 30ZM22.75 20H16.75C16.4848 20 16.2304 19.8946 16.0429 19.7071C15.8554 19.5196 15.75 19.2652 15.75 19C15.75 18.7348 15.8554 18.4804 16.0429 18.2929C16.2304 18.1054 16.4848 18 16.75 18H22.75C23.0152 18 23.2696 18.1054 23.4571 18.2929C23.6446 18.4804 23.75 18.7348 23.75 19C23.75 19.2652 23.6446 19.5196 23.4571 19.7071C23.2696 19.8946 23.0152 20 22.75 20ZM32.75 32H26.75C26.4848 32 26.2304 31.8946 26.0429 31.7071C25.8554 31.5196 25.75 31.2652 25.75 31C25.75 30.7348 25.8554 30.4804 26.0429 30.2929C26.2304 30.1054 26.4848 30 26.75 30H32.75C33.0152 30 33.2696 30.1054 33.4571 30.2929C33.6446 30.4804 33.75 30.7348 33.75 31C33.75 31.2652 33.6446 31.5196 33.4571 31.7071C33.2696 31.8946 33.0152 32 32.75 32ZM32.75 28H26.75C26.4848 28 26.2304 27.8946 26.0429 27.7071C25.8554 27.5196 25.75 27.2652 25.75 27C25.75 26.7348 25.8554 26.4804 26.0429 26.2929C26.2304 26.1054 26.4848 26 26.75 26H32.75C33.0152 26 33.2696 26.1054 33.4571 26.2929C33.6446 26.4804 33.75 26.7348 33.75 27C33.75 27.2652 33.6446 27.5196 33.4571 27.7071C33.2696 27.8946 33.0152 28 32.75 28Z" fill="white"/>
</svg>
