<svg width="49" height="48" viewBox="0 0 49 48" fill="none" xmlns="http://www.w3.org/2000/svg">
<rect x="0.75" width="48" height="48" rx="24" fill="#C31414"/>
<path d="M30.7501 32.9048C31.4399 32.633 32.1084 32.3101 32.7501 31.9386V36.9998C32.7501 37.2651 32.6447 37.5194 32.4572 37.7069C32.2696 37.8945 32.0153 37.9998 31.7501 37.9998C31.4848 37.9998 31.2305 37.8945 31.0429 37.7069C30.8554 37.5194 30.7501 37.2651 30.7501 36.9998V32.9048ZM32.2201 21.8511L25.2201 18.1173C24.9865 17.998 24.7154 17.9753 24.4653 18.0539C24.2151 18.1326 24.0058 18.3064 23.8826 18.5378C23.7593 18.7693 23.7319 19.0399 23.8062 19.2914C23.8806 19.5429 24.0507 19.7551 24.2801 19.8823L30.1251 22.9998L32.2501 21.8673L32.2201 21.8511ZM40.2201 18.1173L25.2201 10.1173C25.0754 10.0403 24.914 10 24.7501 10C24.5861 10 24.4247 10.0403 24.2801 10.1173L9.28005 18.1173C9.12006 18.2026 8.98625 18.3298 8.89295 18.4852C8.79965 18.6407 8.75037 18.8185 8.75037 18.9998C8.75037 19.1811 8.79965 19.359 8.89295 19.5145C8.98625 19.6699 9.12006 19.7971 9.28005 19.8823L12.7501 21.7336V27.7861C12.749 28.2773 12.9298 28.7515 13.2576 29.1173C14.8951 30.9411 18.5638 33.9998 24.7501 33.9998C26.8012 34.0168 28.8371 33.6453 30.7501 32.9048V23.3336L30.1251 22.9998L24.7501 25.8661L14.2288 20.2498L11.8751 18.9998L24.7501 12.1336L37.6251 18.9998L35.2776 20.2498H35.2701L32.2501 21.8673C32.4021 21.9551 32.5284 22.0814 32.6161 22.2335C32.7039 22.3855 32.7501 22.558 32.7501 22.7336V31.9386C34.0541 31.1858 35.2324 30.2339 36.2426 29.1173C36.5703 28.7515 36.7511 28.2773 36.7501 27.7861V21.7336L40.2201 19.8823C40.38 19.7971 40.5139 19.6699 40.6072 19.5145C40.7005 19.359 40.7497 19.1811 40.7497 18.9998C40.7497 18.8185 40.7005 18.6407 40.6072 18.4852C40.5139 18.3298 40.38 18.2026 40.2201 18.1173Z" fill="white"/>
</svg>
