<svg width="932" height="200" viewBox="0 0 932 200" fill="none" xmlns="http://www.w3.org/2000/svg">
<ellipse cx="387.233" cy="138.276" rx="96.3621" ry="95.7672" transform="rotate(90 387.233 138.276)" fill="white" fill-opacity="0.1"/>
<path d="M96.3621 -55.6379C96.3621 -42.9835 98.8392 -30.4529 103.652 -18.7618C108.465 -7.07058 115.519 3.55229 124.412 12.5003C133.304 21.4484 143.862 28.5464 155.481 33.389C167.1 38.2316 179.553 40.7241 192.129 40.7241C204.706 40.7241 217.159 38.2316 228.778 33.389C240.397 28.5463 250.954 21.4484 259.847 12.5003C268.74 3.55227 275.794 -7.07061 280.607 -18.7618C285.419 -30.453 287.897 -42.9835 287.897 -55.6379L192.129 -55.6379L96.3621 -55.6379Z" fill="white" fill-opacity="0.1"/>
<path d="M678 -1.99998C678 14.8092 681.285 31.4538 687.667 46.9835C694.05 62.5132 703.404 76.6238 715.197 88.5097C726.99 100.396 740.991 109.824 756.399 116.257C771.808 122.689 788.322 126 805 126C821.678 126 838.192 122.689 853.601 116.257C869.009 109.824 883.01 100.396 894.803 88.5096C906.596 76.6237 915.95 62.5131 922.333 46.9834C928.715 31.4538 932 14.8092 932 -2.00003L805 -1.99998L678 -1.99998Z" fill="white" fill-opacity="0.1"/>
<path opacity="0.1" d="M3.8147e-05 234.638C12.6545 234.638 25.185 232.13 36.8762 227.258C48.5674 222.385 59.1902 215.243 68.1383 206.24C77.0863 197.237 84.1843 186.548 89.0269 174.785C93.8696 163.021 96.3621 150.414 96.3621 137.681C96.362 124.948 93.8696 112.341 89.0269 100.577C84.1843 88.8139 77.0863 78.1254 68.1382 69.1221C59.1902 60.1189 48.5673 52.9771 36.8762 48.1045C25.185 43.232 12.6544 40.7241 -9.32309e-06 40.7242L2.96707e-05 137.681L3.8147e-05 234.638Z" fill="white"/>
<rect x="289.086" y="40.7241" width="193.914" height="192.724" transform="rotate(90 289.086 40.7241)" fill="white" fill-opacity="0.1"/>
<rect x="677.724" y="40.7241" width="193.914" height="192.724" transform="rotate(90 677.724 40.7241)" fill="white" fill-opacity="0.1"/>
<path d="M289.086 40.7241L392.393 -59.1389L483 -152L483 40.7241L289.086 40.7241Z" fill="white" fill-opacity="0.1"/>
</svg>
