<svg width="375" height="397" viewBox="0 0 375 397" fill="none" xmlns="http://www.w3.org/2000/svg">
<ellipse cx="64.5219" cy="331.452" rx="65.1502" ry="65.5574" transform="rotate(90 64.5219 331.452)" fill="white" fill-opacity="0.1"/>
<ellipse cx="198.08" cy="198.708" rx="65.9646" ry="65.5574" transform="rotate(90 198.08 198.708)" fill="white" fill-opacity="0.1"/>
<path d="M-1.0354 65.9646C-1.0354 74.6272 0.66029 83.205 3.95486 91.2082C7.24943 99.2114 12.0784 106.483 18.1659 112.609C24.2535 118.734 31.4805 123.593 39.4343 126.908C47.3881 130.223 55.9129 131.929 64.522 131.929C73.1311 131.929 81.656 130.223 89.6097 126.908C97.5635 123.593 104.791 118.734 110.878 112.609C116.966 106.483 121.795 99.2114 125.089 91.2082C128.384 83.205 130.079 74.6272 130.079 65.9646L64.522 65.9646L-1.0354 65.9646Z" fill="white" fill-opacity="0.1"/>
<rect x="130.894" y="131.929" width="132.744" height="131.929" transform="rotate(90 130.894 131.929)" fill="white" fill-opacity="0.1"/>
<rect x="396.936" y="131.929" width="132.744" height="131.929" transform="rotate(90 396.936 131.929)" fill="white" fill-opacity="0.1"/>
<path d="M263.637 264.673L192.919 333.034L130.894 396.602L130.894 264.673L263.637 264.673Z" fill="white" fill-opacity="0.1"/>
<path d="M130.894 131.929L201.612 63.5681L263.637 1.68417e-05L263.637 131.929L130.894 131.929Z" fill="white" fill-opacity="0.1"/>
<rect x="-1.0354" y="46.4194" width="131.115" height="19.5451" fill="white" fill-opacity="0.1"/>
</svg>
