<svg width="32" height="32" viewBox="0 0 32 32" fill="none" xmlns="http://www.w3.org/2000/svg">
<path d="M32 16.0047C32 7.16556 24.8366 0 16 0C7.16345 0 0 7.16556 0 16.0047C0 24.8439 7.16345 32.0094 16 32.0094C24.8366 32.0094 32 24.8439 32 16.0047Z" fill="white"/>
<path d="M26.0749 12.6883C25.9489 11.4725 25.678 10.1286 24.6807 9.42233C23.9083 8.87463 22.8931 8.85438 21.9453 8.85551C19.9418 8.85551 17.9371 8.85888 15.9336 8.86001C14.0066 8.86226 12.0795 8.86338 10.1524 8.86563C9.34743 8.86563 8.56491 8.80377 7.81725 9.15241C7.17527 9.45157 6.67271 10.0206 6.37027 10.6538C5.9509 11.5344 5.86321 12.532 5.81262 13.5059C5.7193 15.2794 5.72942 17.0575 5.84072 18.8299C5.9228 20.1233 6.13079 21.5527 7.1303 22.377C8.01625 23.1069 9.26648 23.1429 10.4155 23.144C14.0628 23.1474 17.7112 23.1508 21.3595 23.153C21.8272 23.1542 22.3152 23.1452 22.7919 23.0934C23.7296 22.9922 24.6234 22.7234 25.226 22.0284C25.8343 21.3277 25.9906 20.3527 26.0827 19.4294C26.3076 17.1891 26.3054 14.9274 26.0749 12.6883ZM13.8244 19.1448V12.8637L19.2616 16.0037L13.8244 19.1448Z" fill="#A31112"/>
</svg>
